<?xml version="1.0" encoding="UTF-8"?>
<svg version="1.1" xmlns="http://www.w3.org/2000/svg" width="180" height="180">
<path d="M0 0 C1.98 0 3.96 0 6 0 C6.3403125 1.5778125 6.3403125 1.5778125 6.6875 3.1875 C7.95829149 6.27996795 8.93956142 6.96950419 11.98828125 8.5078125 C14.29979892 9.36659659 16.62703679 10.18437137 18.96875 10.95703125 C22 12 22 12 25 14 C27.34904126 13.3909893 29.68234271 12.71927295 32 12 C34.875 11.8125 34.875 11.8125 37 12 C37.495 12.495 37.495 12.495 38 13 C42.37739797 13.48637755 44.3334584 12.24992325 48 10 C49.53746761 9.56809656 51.07960124 9.15260388 52.625 8.75 C55.94879291 7.73315757 55.94879291 7.73315757 58.24609375 5.25390625 C59.18932804 3.12134205 59.18932804 3.12134205 60 0 C61.98 0 63.96 0 66 0 C66.34721138 4.8609593 65.78723044 7.95402032 63 12 C58.54596431 14.39832691 53.86594799 15.70903421 49 17 C51.48709702 19.94526826 51.48709702 19.94526826 54.91015625 21.3828125 C57.7441174 22.21975804 58.81175019 23.687414 60.6875 25.9375 C61.28949219 26.64777344 61.89148438 27.35804687 62.51171875 28.08984375 C64 30 64 30 65 32 C65.34611328 30.80503906 65.34611328 30.80503906 65.69921875 29.5859375 C67.61543361 23.36013268 69.22387177 18.52475306 74 14 C74.66 14 75.32 14 76 14 C76.3403125 13.01 76.3403125 13.01 76.6875 12 C78.40872686 8.06576719 80.11730674 4.2273631 83 1 C86.25 0.4375 86.25 0.4375 89 1 C90 2 90 2 90.0625 4.875 C89.141349 10.84405851 84.61121595 15.38718265 81 20 C75.67188166 26.9583635 73.78902338 33.36200212 72.375 41.875 C72.17390625 43.050625 72.17390625 43.050625 71.96875 44.25 C71.64163578 46.16595474 71.32023116 48.08288282 71 50 C71.58410645 50.27473145 72.16821289 50.54946289 72.77001953 50.83251953 C74.92932171 51.9629972 76.74546129 53.20237315 78.6796875 54.6796875 C79.70255859 55.45505859 79.70255859 55.45505859 80.74609375 56.24609375 C81.44863281 56.78363281 82.15117187 57.32117187 82.875 57.875 C85.57234303 59.93178661 88.27933081 61.97417044 91 64 C92.00289062 64.74894531 93.00578125 65.49789062 94.0390625 66.26953125 C97.50063489 68.29258741 100.58200144 69.00421371 104.5 69.8125 C109.95820319 71.09983087 113.90165667 72.43856553 117.19140625 77.18359375 C118.38878428 79.873356 118.42151656 82.11963686 118 85 C114.75 85.3125 114.75 85.3125 111 85 C110.4328125 84.2265625 109.865625 83.453125 109.28125 82.65625 C106.20208718 79.07092343 103.20728772 78.38844766 98.75 77.1875 C98.00492188 76.97158203 97.25984375 76.75566406 96.4921875 76.53320312 C94.66592508 76.00639666 92.8335055 75.50101604 91 75 C91 78.18485535 91.21255145 80.35879071 91.9375 83.375 C95.13364195 96.77512104 95.39900162 111.80299514 91 125 C91.95727736 126.36753909 92.91559812 127.73435858 93.87890625 129.09765625 C98.29471971 136.59069164 98.36740141 145.45935902 98.49609375 153.91015625 C98.74552734 155.43962891 98.74552734 155.43962891 99 157 C100.82461445 158.42805851 100.82461445 158.42805851 103 159 C107.07699426 161.86491489 110.14945931 165.32323144 113.3515625 169.09765625 C114.94636309 171.00584122 114.94636309 171.00584122 116.6953125 172.58203125 C118 174 118 174 118.25 176.625 C118 179 118 179 117 180 C115.00041636 180.04080783 112.99954746 180.04254356 111 180 C111 179.34 111 178.68 111 178 C110.34 178 109.68 178 109 178 C107.28769752 176.38025441 105.62836738 174.7041054 104 173 C102.6078125 171.6696875 102.6078125 171.6696875 101.1875 170.3125 C99 168 99 168 99 166 C98.443125 165.773125 97.88625 165.54625 97.3125 165.3125 C94.18832993 163.53932239 92.28166513 161.80191451 90 159 C89.3126498 156.18529192 89.29995518 153.4503174 89.3125 150.5625 C89.25261009 145.28758089 88.98462984 140.98924873 87 136 C84.525 141.445 84.525 141.445 82 147 C81.34 147 80.68 147 80 147 C79.90460938 147.71671875 79.80921875 148.4334375 79.7109375 149.171875 C77.23964272 159.00273997 67.94477063 166.44774607 60 172 C58.93394531 172.77085937 57.86789063 173.54171875 56.76953125 174.3359375 C46.21428936 181.30942899 34.32313865 182.18824181 22 180 C16.37086277 178.30564606 11.7497093 175.39773212 7 172 C5.55947266 171.00033203 5.55947266 171.00033203 4.08984375 169.98046875 C1.9388706 168.40131536 -0.1158727 166.88923333 -2 165 C-2 164.34 -2 163.68 -2 163 C-2.928125 162.6596875 -2.928125 162.6596875 -3.875 162.3125 C-6.61410209 160.62070165 -7.05024472 159.00755839 -8 156 C-8.66 156 -9.32 156 -10 156 C-11.45909711 153.25040459 -12.91714242 150.50025279 -14.375 147.75 C-14.7875 146.97269531 -15.2 146.19539062 -15.625 145.39453125 C-16.02460937 144.64042969 -16.42421875 143.88632813 -16.8359375 143.109375 C-17.38580322 142.07248535 -17.38580322 142.07248535 -17.94677734 141.01464844 C-18.98886031 139.02130846 -20.00042943 137.01494463 -21 135 C-22.52987307 139.59566615 -23.15853802 143.47640299 -23.17553711 148.30688477 C-23.23569077 159.3346465 -23.23569077 159.3346465 -27.4375 163.5625 C-30.47012987 166 -30.47012987 166 -33 166 C-33 166.66 -33 167.32 -33 168 C-34.61974559 169.71230248 -36.2958946 171.37163262 -38 173 C-39.3303125 174.3921875 -39.3303125 174.3921875 -40.6875 175.8125 C-43 178 -43 178 -45 178 C-45 178.66 -45 179.32 -45 180 C-46.99954746 180.04254356 -49.00041636 180.04080783 -51 180 C-52 179 -52 179 -52.32421875 176.71875 C-51.88800982 173.06090162 -50.48597103 171.97721296 -47.8125 169.5 C-46.57693359 168.33210938 -46.57693359 168.33210938 -45.31640625 167.140625 C-44.55199219 166.43421875 -43.78757812 165.7278125 -43 165 C-42.0925 164.0925 -41.185 163.185 -40.25 162.25 C-38 160 -38 160 -35.42578125 157.90625 C-32.19200254 154.0319644 -32.17617393 151.14938911 -31.9375 146.25 C-31.29181852 137.96846932 -29.63847791 131.95771686 -25 125 C-25.18356365 122.35905199 -25.47363436 119.85786531 -25.875 117.25 C-27.84877985 102.70251151 -28.32856434 87.87437507 -23 74 C-23.61746094 74.25394531 -24.23492187 74.50789063 -24.87109375 74.76953125 C-29.19251097 76.52572364 -33.46517549 78.16860076 -37.9375 79.5 C-41.30972542 80.54123293 -41.30972542 80.54123293 -43.625 83.1875 C-44.07875 83.785625 -44.5325 84.38375 -45 85 C-48.6875 85.25 -48.6875 85.25 -52 85 C-52.56830919 81.1165539 -52.14522223 78.55934702 -49.9375 75.375 C-46.27608195 71.39255715 -41.9673686 70.74930317 -36.82861328 69.63061523 C-30.03639493 68.03406797 -25.30760379 64.44888648 -20 60 C-16.26174497 57 -16.26174497 57 -14 57 C-14 56.34 -14 55.68 -14 55 C-10.53846154 52 -10.53846154 52 -8 52 C-7.67 51.01 -7.34 50.02 -7 49 C-6.34 49 -5.68 49 -5 49 C-5.56917442 45.99669666 -6.15480915 42.99816288 -6.75 40 C-6.90726563 39.16082031 -7.06453125 38.32164063 -7.2265625 37.45703125 C-8.73622416 29.96678688 -11.10866872 23.51262666 -16.5 17.9375 C-20.26158193 13.81189401 -23.68827801 9.86784228 -24.3125 4.125 C-24 2 -24 2 -23 1 C-20.1796875 0.6015625 -20.1796875 0.6015625 -17 1 C-14.8828125 3.3359375 -14.8828125 3.3359375 -13.125 6.375 C-12.52945313 7.37273438 -11.93390625 8.37046875 -11.3203125 9.3984375 C-10 12 -10 12 -10 14 C-9.01 14.33 -8.02 14.66 -7 15 C-2.83341009 19.99990789 -0.74004139 24.76131501 1 31 C1.33773437 30.4946875 1.67546875 29.989375 2.0234375 29.46875 C2.46945313 28.8190625 2.91546875 28.169375 3.375 27.5 C3.81585938 26.8503125 4.25671875 26.200625 4.7109375 25.53125 C5.34902344 24.77328125 5.34902344 24.77328125 6 24 C6.66 24 7.32 24 8 24 C8.495 22.515 8.495 22.515 9 21 C10.98 21 12.96 21 15 21 C15.66 19.68 16.32 18.36 17 17 C15.87851563 16.74476562 15.87851563 16.74476562 14.734375 16.484375 C13.74953125 16.24203125 12.7646875 15.9996875 11.75 15.75 C10.28820312 15.40195312 10.28820312 15.40195312 8.796875 15.046875 C4.99628435 13.62430755 2.97165457 11.45748186 0.75 8.125 C-0.2280891 5.35374755 -0.13249238 2.91483243 0 0 Z M52 28 C52 28.66 52 29.32 52 30 C51.34 30 50.68 30 50 30 C50.50603992 32.16874252 50.99983813 33.99967627 52 36 C52.66 36 53.32 36 54 36 C54 36.66 54 37.32 54 38 C55.96466413 39.06775224 57.96855359 40.06553465 60 41 C60.66 40.67 61.32 40.34 62 40 C61.21331482 38.37258256 60.4204759 36.74813869 59.625 35.125 C59.18414062 34.22007813 58.74328125 33.31515625 58.2890625 32.3828125 C57.09497301 29.90465528 57.09497301 29.90465528 55 28 C54.01 28 53.02 28 52 28 Z M9.30859375 30.609375 C8.69113281 31.31578125 8.07367188 32.0221875 7.4375 32.75 C6.81746094 33.44609375 6.19742188 34.1421875 5.55859375 34.859375 C3.70255223 37.12738787 3.70255223 37.12738787 3 41 C5.97 40.01 8.94 39.02 12 38 C12 37.34 12 36.68 12 36 C12.66 36 13.32 36 14 36 C15.63676257 34.0399719 15.63676257 34.0399719 17 32 C13.256203 28.62097031 13.256203 28.62097031 9.30859375 30.609375 Z M-3 54 C-4.27348212 55.72721684 -5.54367057 57.45686238 -6.8125 59.1875 C-7.87404297 60.63189453 -7.87404297 60.63189453 -8.95703125 62.10546875 C-12.54654062 66.65453973 -12.54654062 66.65453973 -14 72 C-13.071875 71.938125 -12.14375 71.87625 -11.1875 71.8125 C-8 72 -8 72 -6.1875 73.375 C-3.12162079 77.57041366 -3.47102804 81.98191462 -4 87 C-5.41010977 91.5654049 -7.16638561 95.97445139 -11 99 C-14.6875 99.1875 -14.6875 99.1875 -18 99 C-18.33 96.69 -18.66 94.38 -19 92 C-19.99 92.495 -19.99 92.495 -21 93 C-22.22542392 112.25277134 -17.50315089 129.32821916 -8 146 C-7.67 146 -7.34 146 -7 146 C-6.67 142.37 -6.34 138.74 -6 135 C-2.24846639 133.92813325 -0.52044583 133.7557091 3.0625 135.4375 C7.2518344 139.09202575 10.6119235 142.83152734 11.30859375 148.51953125 C11.3120345 150.70440645 11.22627033 152.82780479 11 155 C10.01 155.495 10.01 155.495 9 156 C9 156.66 9 157.32 9 158 C3.2210129 156.10688354 -0.53763648 154.12768625 -5 150 C-2.33340066 155.99984852 1.85921933 160.08853645 7 164 C7.66 164 8.32 164 9 164 C9 164.66 9 165.32 9 166 C9.99 166 10.98 166 12 166 C12 166.66 12 167.32 12 168 C14.22324926 169.1793149 16.45246639 170.34340918 18.6875 171.5 C19.31333984 171.83386719 19.93917969 172.16773438 20.58398438 172.51171875 C24.52400927 174.53330221 26.40911922 175 31 175 C31 145.63 31 116.26 31 86 C28.03 85.67 25.06 85.34 22 85 C18.33097261 77.66194522 17.69693818 69.72088062 20 61.75 C20.33 60.8425 20.66 59.935 21 59 C15.64701055 56.40525744 10.96169059 55.36349552 5.0625 54.8125 C4.28326172 54.73064453 3.50402344 54.64878906 2.70117188 54.56445312 C0.80179203 54.36635829 -1.09898762 54.18176159 -3 54 Z M55.1875 57.4375 C53.86202148 57.65889648 53.86202148 57.65889648 52.50976562 57.88476562 C50.33837881 58.24861963 48.16871131 58.62057888 46 59 C46.48533203 60.82144531 46.48533203 60.82144531 46.98046875 62.6796875 C48.50169175 68.78878994 48.770096 74.35279499 47 80.4375 C45 83 45 83 37 86 C37 115.37 37 144.74 37 175 C49.31345388 172.53730922 59.50156154 164.99834661 68 156 C69 155 70 154 71 153 C70.67 152.34 70.34 151.68 70 151 C69.4225 151.61875 68.845 152.2375 68.25 152.875 C66.1319822 154.87535014 64.74371061 156.0854298 62 157 C59.375 156.8125 59.375 156.8125 57 156 C54.89338781 152.84008172 54.67532299 151.69164519 55.328125 148.0390625 C57.03715828 142.85234521 60.31815504 138.38752209 64.5 134.9375 C67 134 67 134 73 134 C73.495 139.94 73.495 139.94 74 146 C78.90752378 143.54623811 81.21240799 133.98685308 83 129 C87.30729736 115.29214249 89.59743821 102.28591015 87 88 C86.67 88 86.34 88 86 88 C85.67 91.63 85.34 95.26 85 99 C82.03 99 79.06 99 76 99 C72.1038465 91.20769301 69.72708236 84.81141877 71 76 C72.6875 73.3125 72.6875 73.3125 75 72 C77.75 71.75 77.75 71.75 80 72 C78.6104447 68.03798593 76.77266111 65.05188837 74.1875 61.75 C73.52105469 60.87859375 72.85460937 60.0071875 72.16796875 59.109375 C67.26303809 54.33701004 61.35087525 56.3574156 55.1875 57.4375 Z M-20 87 C-19 90 -19 90 -19 90 Z M73 146 C74 148 74 148 74 148 Z M-7 147 C-6 149 -6 149 -6 149 Z " fill="#000000" transform="translate(57,0)"/>
<path d="M0 0 C3.08032112 2.48459864 5.76975032 5.86576262 6.203125 9.8828125 C6.34566413 16.70093408 5.47102469 22.24657249 0.8125 27.4375 C-4.33130322 30.29516845 -8.24412898 30.49749679 -13.75 28.9375 C-17.57554025 26.65688947 -18.8980783 24.90939317 -21 21 C-21.28139654 18.21417426 -21.38863832 15.87643745 -21.25 13.125 C-21.23195313 12.43664062 -21.21390625 11.74828125 -21.1953125 11.0390625 C-21.14863748 9.3587619 -21.07690939 7.67918837 -21 6 C-20.34 6 -19.68 6 -19 6 C-18.731875 5.38125 -18.46375 4.7625 -18.1875 4.125 C-16.64120241 1.35794115 -14.86642059 0.28031254 -11.875 -0.6875 C-7.77397391 -1.13326371 -3.98054388 -1.19704762 0 0 Z " fill="#000000" transform="translate(123,95)"/>
<path d="M0 0 C4.07421074 4.27792128 3.77836342 8.19465727 3.71875 13.828125 C3.34863064 18.56036542 2.04668771 21.9678346 -1.25 25.5 C-5.63445847 27.69222923 -9.40494153 27.81060313 -14.1875 27 C-18.75381962 25.10454657 -20.35930205 22.62122141 -22.75 18.4375 C-24.29926467 12.62775748 -24.49203079 7.47679082 -21.625 2.125 C-16.08638352 -4.39101938 -7.00602773 -5.60482219 0 0 Z " fill="#000000" transform="translate(75.5,97.375)"/>
</svg>
